<?xml version="1.0" encoding="utf-8"?>
<!-- Generator: Adobe Illustrator 15.0.2, SVG Export Plug-In  -->
<!DOCTYPE svg PUBLIC "-//W3C//DTD SVG 1.1//EN" "http://www.w3.org/Graphics/SVG/1.1/DTD/svg11.dtd" [
	<!ENTITY ns_flows "http://ns.adobe.com/Flows/1.0/">
]>
<svg version="1.1"
	 xmlns="http://www.w3.org/2000/svg" xmlns:xlink="http://www.w3.org/1999/xlink" xmlns:a="http://ns.adobe.com/AdobeSVGViewerExtensions/3.0/"
	 x="0px" y="0px" width="152px" height="130px" viewBox="0 0 152 130" enable-background="new 0 0 152 130" xml:space="preserve">
<defs>
</defs>
<rect x="44" y="84" fill="#FFFFFF" width="20" height="10"/>
<rect x="44" y="72" fill="#FFFFFF" width="20" height="10"/>
<rect y="108" fill="#FFFFFF" width="20" height="10"/>
<rect x="44" y="96" fill="#FFFFFF" width="20" height="10"/>
<rect y="120" fill="#FFFFFF" width="20" height="10"/>
<rect x="22" y="120" fill="#FFFFFF" width="20" height="10"/>
<rect x="44" y="120" fill="#FFFFFF" width="20" height="10"/>
<rect x="44" y="108" fill="#FFFFFF" width="20" height="10"/>
<rect x="88" y="84" fill="#FFFFFF" width="20" height="10"/>
<rect x="132" y="72" fill="#FFFFFF" width="20" height="10"/>
<rect x="88" y="96" fill="#FFFFFF" width="20" height="10"/>
<rect x="132" y="96" fill="#FFFFFF" width="20" height="10"/>
<rect x="88" y="120" fill="#FFFFFF" width="20" height="10"/>
<rect x="110" y="120" fill="#FFFFFF" width="20" height="10"/>
<rect x="132" y="120" fill="#FFFFFF" width="20" height="10"/>
<rect x="132" y="108" fill="#FFFFFF" width="20" height="10"/>
<rect x="110" y="72" fill="#FFFFFF" width="20" height="10"/>
<rect x="88" y="72" fill="#FFFFFF" width="20" height="10"/>
<rect x="110" y="96" fill="#FFFFFF" width="20" height="10"/>
<rect y="48" fill="#FFFFFF" width="20" height="10"/>
<rect y="36" fill="#FFFFFF" width="20" height="10"/>
<rect y="24" fill="#FFFFFF" width="20" height="10"/>
<rect y="12" fill="#FFFFFF" width="20" height="10"/>
<rect fill="#FFFFFF" width="20" height="10"/>
<rect x="132" y="48" fill="#FFFFFF" width="20" height="10"/>
<rect x="132" y="36" fill="#FFFFFF" width="20" height="10"/>
<rect x="132" y="24" fill="#FFFFFF" width="20" height="10"/>
<rect x="132" y="12" fill="#FFFFFF" width="20" height="10"/>
<rect x="132" fill="#FFFFFF" width="20" height="10"/>
<rect x="66" y="36" fill="#FFFFFF" width="20" height="10"/>
<rect x="44" y="24" fill="#FFFFFF" width="20" height="10"/>
<rect x="22" y="12" fill="#FFFFFF" width="20" height="10"/>
<rect x="110" y="12" fill="#FFFFFF" width="20" height="10"/>
<rect x="88" y="24" fill="#FFFFFF" width="20" height="10"/>
<rect x="66" y="48" fill="#FFFFFF" width="20" height="10"/>
</svg>
